<svg viewBox="0 0 243 215" fill="none"
    xmlns="http://www.w3.org/2000/svg">
    <g clip-path="url(#clip0)">
        <path d="M0.200195 0.400391H242.5V215H0.200195V0.400391Z" fill="white" fill-opacity="0.01"/>
        <path d="M240.8 147.001C230.289 138.412 221.121 128.301 213.6 117.001C205.729 105.43 199.692 92.7139 195.7 79.3012L197.6 78.7012C201.575 91.9111 207.507 104.451 215.2 115.901C222.673 126.968 231.699 136.903 242 145.401L240.8 147.001Z" fill="#DFE1E5"/>
        <path d="M16.6 179.2L15 178.1C24.01 165.675 31.6857 152.335 37.9 138.3C46.2037 119.395 51.7276 99.3879 54.3 78.9004L56.3 79.2004C53.7085 99.868 48.1163 120.047 39.7 139.1C33.4569 153.255 25.7125 166.699 16.6 179.2Z" fill="#C1C7D0"/>
        <path d="M108.5 44.2012H87.5V78.2412H108.5V44.2012Z" fill="url(#paint0_linear)"/>
        <path d="M164.7 44.2012H143.7V78.2412H164.7V44.2012Z" fill="#EBECF0"/>
        <path d="M197.7 78.3008H54.3003V205.641H197.7V78.3008Z" fill="url(#paint1_linear)"/>
        <path d="M123.9 93.4004H85.8003V95.4004H123.9V93.4004Z" fill="#3384FF"/>
        <path d="M79.3001 93.4004H69.6001V95.4004H79.3001V93.4004Z" fill="#3384FF"/>
        <path d="M123.9 104.201H85.8003V106.201H123.9V104.201Z" fill="#FF7452"/>
        <path d="M79.3001 104.201H69.6001V106.201H79.3001V104.201Z" fill="#3384FF"/>
        <path d="M157.3 115H85.8003V117H157.3V115Z" fill="#3384FF"/>
        <path d="M79.3001 115H69.6001V117H79.3001V115Z" fill="#3384FF"/>
        <path d="M182.201 125.701H157.301V127.701H182.201V125.701Z" fill="#FF7452"/>
        <path d="M149.6 125.701H116.9V127.701H149.6V125.701Z" fill="#FAFBFC"/>
        <path d="M108 125.701H85.8003V127.701H108V125.701Z" fill="#FF7452"/>
        <path d="M79.3001 125.701H69.6001V127.701H79.3001V125.701Z" fill="#3384FF"/>
        <path d="M157.3 136.5H85.8003V138.5H157.3V136.5Z" fill="#3384FF"/>
        <path d="M79.3001 136.5H69.6001V138.5H79.3001V136.5Z" fill="#3384FF"/>
        <path d="M123.9 147.301H85.8003V149.301H123.9V147.301Z" fill="#3384FF"/>
        <path d="M79.3001 147.301H69.6001V149.301H79.3001V147.301Z" fill="#3384FF"/>
        <path d="M123.9 158.102H85.8003V160.102H123.9V158.102Z" fill="#FF7452"/>
        <path d="M79.3001 158.102H69.6001V160.102H79.3001V158.102Z" fill="#3384FF"/>
        <path d="M155.7 168.801H85.8003V170.801H155.7V168.801Z" fill="#2684FF"/>
        <path d="M79.3001 168.801H69.6001V170.801H79.3001V168.801Z" fill="#3384FF"/>
        <path d="M79.3001 158.102H69.6001V160.102H79.3001V158.102Z" fill="#3384FF"/>
        <path d="M79.3001 168.801H69.6001V170.801H79.3001V168.801Z" fill="#3384FF"/>
        <path d="M123.9 179.602H85.8003V181.602H123.9V179.602Z" fill="#FFAB00"/>
        <path d="M79.3001 179.602H69.6001V181.602H79.3001V179.602Z" fill="#3384FF"/>
        <path d="M155.7 190.4H132.6V192.4H155.7V190.4Z" fill="#3384FF"/>
        <path d="M123.9 190.4H85.8003V192.4H123.9V190.4Z" fill="#FAFBFC"/>
        <path d="M79.3001 190.4H69.6001V192.4H79.3001V190.4Z" fill="#3384FF"/>
        <path d="M242.5 145.5L220.6 214.5C215.982 213.582 211.738 211.321 208.4 208C203.854 212.477 197.73 214.986 191.35 214.986C184.97 214.986 178.846 212.477 174.3 208C169.754 212.477 163.63 214.986 157.25 214.986C150.87 214.986 144.746 212.477 140.2 208C135.654 212.477 129.53 214.986 123.15 214.986C116.77 214.986 110.646 212.477 106.1 208C101.554 212.477 95.4304 214.986 89.0504 214.986C82.6704 214.986 76.5463 212.477 72.0004 208C67.4545 212.477 61.3304 214.986 54.9504 214.986C48.5704 214.986 42.4463 212.477 37.9004 208C34.7383 211.163 30.7552 213.38 26.4004 214.4L14.9004 177.9L117.6 176.9C123.881 176.831 130.071 175.391 135.737 172.679C141.403 169.967 146.408 166.049 150.4 161.2C154.389 156.26 159.45 152.292 165.2 149.6C170.955 146.889 177.239 145.489 183.6 145.5H242.5Z" fill="url(#paint2_linear)"/>
        <path d="M150.4 161.201C146.408 166.05 141.403 169.967 135.737 172.679C130.071 175.391 123.881 176.832 117.6 176.901L14.9004 177.901L18.0004 187.901H229.1L237.8 160.301H151.2L150.4 161.201Z" fill="url(#paint3_linear)"/>
        <path d="M165.2 149.6C163.38 150.502 161.611 151.504 159.9 152.6H240.3L242.5 145.5H183.6C177.239 145.489 170.955 146.889 165.2 149.6Z" fill="url(#paint4_linear)"/>
        <path d="M151.2 160.3H237.8L240.3 152.6H159.9C156.639 154.727 153.708 157.321 151.2 160.3Z" fill="#FF7452"/>
        <path d="M176 180.3C179.424 180.3 182.2 177.525 182.2 174.1C182.2 170.676 179.424 167.9 176 167.9C172.576 167.9 169.8 170.676 169.8 174.1C169.8 177.525 172.576 180.3 176 180.3Z" fill="#A5ADBA"/>
        <path d="M204.1 180.3C207.525 180.3 210.3 177.525 210.3 174.1C210.3 170.676 207.525 167.9 204.1 167.9C200.676 167.9 197.9 170.676 197.9 174.1C197.9 177.525 200.676 180.3 204.1 180.3Z" fill="#A5ADBA"/>
        <path d="M108.5 49.3008H87.5V56.2008H108.5V49.3008Z" fill="#FF7452"/>
        <path d="M164.7 49.3008H143.7V56.2008H164.7V49.3008Z" fill="#FF7452"/>
        <path d="M164.6 44.3007C164.6 40.5712 163.866 36.8782 162.438 33.4325C161.011 29.9869 158.919 26.8561 156.282 24.2189C153.645 21.5817 150.514 19.4898 147.068 18.0625C143.623 16.6353 139.93 15.9007 136.2 15.9007H91.2001C91.2134 13.8615 90.8216 11.84 90.0473 9.95344C89.2731 8.0669 88.1319 6.35291 86.6899 4.91095C85.2479 3.46898 83.5339 2.32777 81.6474 1.55352C79.7609 0.779282 77.7393 0.387432 75.7001 0.400717H49.4001C45.2893 0.400717 41.3468 2.03375 38.44 4.94056C35.5332 7.84738 33.9001 11.7899 33.9001 15.9007C28.1623 15.9272 22.6684 18.2251 18.6205 22.2917C14.5726 26.3584 12.3001 31.8628 12.3001 37.6007V44.3007H8.20013C6.20999 44.2907 4.28759 45.0229 2.80832 46.3543C1.32904 47.6856 0.399117 49.5205 0.200126 51.5007C0.131676 52.5663 0.282741 53.6346 0.643963 54.6394C1.00518 55.6442 1.56887 56.5642 2.3001 57.3423C3.03134 58.1204 3.91454 58.7401 4.89502 59.163C5.87549 59.5859 6.93235 59.8029 8.00013 59.8007H42.0001C45.227 59.8008 48.3723 58.7873 50.992 56.9032C53.6117 55.0192 55.5734 52.3599 56.6001 49.3007C57.0818 47.8497 58.0069 46.5866 59.2449 45.6895C60.4829 44.7924 61.9713 44.3066 63.5001 44.3007C64.9471 44.3171 66.3565 44.7631 67.5495 45.5821C68.7424 46.4012 69.665 47.5563 70.2001 48.9007C71.1083 51.0675 72.6375 52.9169 74.595 54.216C76.5525 55.5151 78.8508 56.2057 81.2001 56.2007H128.4C129.971 56.2139 131.529 55.9159 132.985 55.3237C134.44 54.7316 135.764 53.8572 136.879 52.7508C137.995 51.6445 138.881 50.3282 139.485 48.8779C140.089 47.4275 140.4 45.8719 140.4 44.3007H164.6Z" fill="url(#paint5_linear)"/>
        <path d="M134.7 13.5999C134.569 13.6041 134.438 13.5794 134.317 13.5276C134.196 13.4758 134.088 13.3981 134 13.2999C133.811 13.0963 133.705 12.8283 133.705 12.5499C133.705 12.2716 133.811 12.0035 134 11.7999L137.6 8.59992L134.3 5.09992C134.13 4.90018 134.045 4.64138 134.064 4.37943C134.082 4.11748 134.203 3.8734 134.4 3.69992C134.587 3.51669 134.839 3.41406 135.1 3.41406C135.362 3.41406 135.613 3.51669 135.8 3.69992L139.7 7.99992C139.799 8.08757 139.876 8.19568 139.928 8.31662C139.98 8.43757 140.005 8.5684 140 8.69992C139.962 8.95518 139.859 9.19628 139.7 9.39992L135.4 13.2999C135.21 13.4801 134.962 13.5865 134.7 13.5999Z" fill="#B2D4FF"/>
        <path d="M124.3 13.5004C124.039 13.4869 123.791 13.3806 123.6 13.2004L119.7 8.90039C119.517 8.71346 119.415 8.46214 119.415 8.20039C119.415 7.93864 119.517 7.68732 119.7 7.50039L124 3.60039C124.193 3.45596 124.431 3.38584 124.671 3.40291C124.911 3.41997 125.137 3.52307 125.308 3.69329C125.478 3.8635 125.581 4.08939 125.598 4.3295C125.615 4.56961 125.545 4.80782 125.4 5.00039L121.8 8.30039L125.1 11.8004C125.271 12.0001 125.356 12.2589 125.337 12.5209C125.319 12.7828 125.198 13.0269 125 13.2004C124.913 13.2985 124.805 13.3762 124.684 13.4281C124.563 13.4799 124.432 13.5046 124.3 13.5004Z" fill="#B2D4FF"/>
        <path d="M128 15.1007H127.7C127.451 15.0304 127.238 14.866 127.108 14.6421C126.977 14.4183 126.939 14.1525 127 13.9007L130.1 2.70075C130.192 2.44362 130.375 2.22959 130.615 2.10023C130.856 1.97087 131.135 1.93542 131.4 2.00075C131.637 2.08973 131.836 2.25767 131.964 2.47626C132.091 2.69486 132.139 2.95073 132.1 3.20075L128.9 14.4007C128.854 14.6034 128.739 14.7838 128.575 14.9114C128.411 15.039 128.208 15.1059 128 15.1007Z" fill="#B2D4FF"/>
        <path d="M30.1 64.8996C29.9534 64.9055 29.807 64.882 29.6697 64.8305C29.5323 64.7789 29.4066 64.7004 29.3 64.5996C29.1295 64.3999 29.0444 64.1411 29.0631 63.8791C29.0818 63.6172 29.2028 63.3731 29.4 63.1996L32.9 59.8996L29.7 56.3996C29.5854 56.3136 29.4905 56.2041 29.422 56.0783C29.3534 55.9525 29.3126 55.8134 29.3025 55.6705C29.2923 55.5276 29.313 55.3842 29.3631 55.2499C29.4132 55.1157 29.4916 54.9938 29.5929 54.8925C29.6942 54.7912 29.8161 54.7128 29.9503 54.6627C30.0845 54.6126 30.2279 54.592 30.3709 54.6021C30.5138 54.6123 30.6528 54.653 30.7786 54.7216C30.9044 54.7902 31.014 54.885 31.1 54.9996L35.1 59.2996C35.249 59.5081 35.3205 59.762 35.3023 60.0176C35.284 60.2732 35.1771 60.5144 35 60.6996L30.7 64.6996L30.1 64.8996Z" fill="#B2D4FF"/>
        <path d="M19.7 64.8005C19.5685 64.8047 19.4377 64.78 19.3167 64.7282C19.1958 64.6764 19.0877 64.5987 19 64.5005L15 60.2005C14.851 59.9921 14.7795 59.7381 14.7977 59.4825C14.816 59.2269 14.9229 58.9857 15.1 58.8005L19.4 54.9005C19.4949 54.7953 19.6111 54.7115 19.7408 54.6546C19.8705 54.5977 20.0108 54.569 20.1525 54.5704C20.2941 54.5718 20.4339 54.6033 20.5625 54.6627C20.691 54.7222 20.8055 54.8083 20.8983 54.9154C20.991 55.0224 21.06 55.148 21.1006 55.2837C21.1412 55.4194 21.1525 55.5622 21.1338 55.7026C21.115 55.843 21.0667 55.9779 20.9919 56.0982C20.9171 56.2185 20.8176 56.3216 20.7 56.4005L17.2 59.6005L20.4 63.2005C20.5833 63.3875 20.6859 63.6388 20.6859 63.9005C20.6859 64.1623 20.5833 64.4136 20.4 64.6005L19.7 64.8005Z" fill="#B2D4FF"/>
        <path d="M23.2999 66.4001H23.0999C22.9688 66.3788 22.8441 66.3288 22.7347 66.2536C22.6252 66.1784 22.5337 66.0799 22.4668 65.9652C22.3999 65.8505 22.3592 65.7225 22.3477 65.5902C22.3361 65.4579 22.3539 65.3247 22.3999 65.2001L25.4999 54.0001C25.5702 53.7507 25.7347 53.5383 25.9585 53.4077C26.1824 53.2771 26.4482 53.2385 26.6999 53.3001C26.957 53.3914 27.1711 53.575 27.3004 53.8152C27.4298 54.0555 27.4653 54.3352 27.3999 54.6001L24.2999 65.7001C24.2339 65.9108 24.1 66.0938 23.9191 66.2204C23.7382 66.347 23.5205 66.4102 23.2999 66.4001Z" fill="#B2D4FF"/>
        <path d="M71.6001 25.1996C71.3385 25.1861 71.0902 25.0798 70.9001 24.8996C70.7296 24.6999 70.6445 24.4411 70.6632 24.1791C70.6819 23.9172 70.8029 23.6731 71.0001 23.4996L74.5001 20.1996L71.3001 16.6996C71.1556 16.507 71.0855 16.2688 71.1026 16.0287C71.1197 15.7886 71.2228 15.5627 71.393 15.3925C71.5632 15.2223 71.7891 15.1192 72.0292 15.1021C72.2693 15.0851 72.5075 15.1552 72.7001 15.2996L76.6001 19.5996C76.7833 19.7865 76.8859 20.0379 76.8859 20.2996C76.8859 20.5614 76.7833 20.8127 76.6001 20.9996L72.3001 24.8996C72.2124 24.9977 72.1043 25.0755 71.9834 25.1273C71.8624 25.1791 71.7316 25.2038 71.6001 25.1996Z" fill="#4C9AFF"/>
        <path d="M83.7003 25.1997H77.3003C77.0426 25.1771 76.8012 25.0645 76.6183 24.8817C76.4354 24.6988 76.3228 24.4573 76.3003 24.1997C76.3003 23.9344 76.4056 23.6801 76.5932 23.4926C76.7807 23.305 77.0351 23.1997 77.3003 23.1997H83.7003C83.8355 23.1836 83.9726 23.1984 84.1012 23.2429C84.2299 23.2875 84.3467 23.3607 84.443 23.457C84.5393 23.5532 84.6124 23.6701 84.657 23.7987C84.7016 23.9274 84.7164 24.0645 84.7003 24.1997C84.7003 24.4649 84.5949 24.7192 84.4074 24.9068C84.2199 25.0943 83.9655 25.1997 83.7003 25.1997Z" fill="#4C9AFF"/>
    </g>
    <defs>
        <linearGradient id="paint0_linear" x1="84.21" y1="74.9912" x2="111.71" y2="47.5012" gradientUnits="userSpaceOnUse">
            <stop offset="0.03" stop-color="#C1C7D0"/>
            <stop offset="0.73" stop-color="#EBECF0"/>
        </linearGradient>
        <linearGradient id="paint1_linear" x1="58.3403" y1="209.631" x2="193.73" y2="74.2308" gradientUnits="userSpaceOnUse">
            <stop offset="0.15" stop-color="#253858"/>
            <stop offset="0.64" stop-color="#273A59"/>
            <stop offset="0.82" stop-color="#2E405F"/>
            <stop offset="0.94" stop-color="#394A67"/>
            <stop offset="1" stop-color="#42526E"/>
        </linearGradient>
        <linearGradient id="paint2_linear" x1="14.8704" y1="180.23" x2="242.53" y2="180.23" gradientUnits="userSpaceOnUse">
            <stop stop-color="#6C798F"/>
            <stop offset="1" stop-color="#EBECF0"/>
        </linearGradient>
        <linearGradient id="paint3_linear" x1="-2.86961" y1="174.061" x2="246.38" y2="174.061" gradientUnits="userSpaceOnUse">
            <stop offset="0.02" stop-color="#A5ADBA"/>
            <stop offset="1" stop-color="#EBECF0"/>
        </linearGradient>
        <linearGradient id="paint4_linear" x1="-93.6816" y1="1200.71" x2="20494.4" y2="1200.71" gradientUnits="userSpaceOnUse">
            <stop offset="0.02" stop-color="#A5ADBA"/>
            <stop offset="1" stop-color="#EBECF0"/>
        </linearGradient>
        <linearGradient id="paint5_linear" x1="34.9201" y1="89.9807" x2="128.5" y2="-3.59927" gradientUnits="userSpaceOnUse">
            <stop stop-color="#B2D4FF" stop-opacity="0"/>
            <stop offset="0.09" stop-color="#ADD1FF" stop-opacity="0.05"/>
            <stop offset="0.25" stop-color="#9FC9FF" stop-opacity="0.18"/>
            <stop offset="0.48" stop-color="#89BDFF" stop-opacity="0.4"/>
            <stop offset="0.74" stop-color="#6BACFF" stop-opacity="0.69"/>
            <stop offset="1" stop-color="#4C9AFF"/>
        </linearGradient>
        <clipPath id="clip0">
            <path d="M0.200195 0.400391H242.5V215H0.200195V0.400391Z" fill="white"/>
        </clipPath>
    </defs>
</svg>
