<svg xmlns="http://www.w3.org/2000/svg" xmlns:xlink="http://www.w3.org/1999/xlink" width="816" height="275.54" viewBox="0 0 816 275.54"><defs><clipPath id="a" transform="translate(-108 -83)"><rect x="470" y="288.54" width="92" height="68" style="fill:none"/></clipPath><clipPath id="b" transform="translate(-108 -83)"><rect x="388" y="199.98" width="256" height="256" style="fill:none"/></clipPath><clipPath id="d" transform="translate(-108 -83)"><rect x="472.83" y="309.54" width="29.17" height="45" style="fill:none"/></clipPath><clipPath id="e" transform="translate(-108 -83)"><rect x="530" y="309.54" width="29.17" height="45" style="fill:none"/></clipPath><clipPath id="f" transform="translate(-108 -83)"><rect x="500" y="290.54" width="32" height="20.75" style="fill:none"/></clipPath><clipPath id="g" transform="translate(-108 -83)"><rect x="509.17" y="334.05" width="13.66" height="13.66" style="fill:none"/></clipPath><clipPath id="h" transform="translate(-108 -83)"><rect x="447.5" y="137.72" width="137" height="172.75" style="fill:none"/></clipPath><clipPath id="i" transform="translate(-108 -83)"><rect x="388" y="96.09" width="256" height="256" style="fill:none"/></clipPath><clipPath id="k" transform="translate(-108 -83)"><rect x="466" y="228.97" width="100" height="79.5" style="fill:none"/></clipPath><clipPath id="l" transform="translate(-108 -83)"><rect x="498.6" y="181.72" width="31.26" height="9.38" style="fill:none"/></clipPath><clipPath id="m" transform="translate(-108 -83)"><rect x="450.85" y="139.72" width="86.87" height="53.23" style="fill:none"/></clipPath><clipPath id="n" transform="translate(-108 -83)"><rect x="513" y="169.72" width="69.49" height="46.79" style="fill:none"/></clipPath><clipPath id="o" transform="translate(-108 -83)"><rect x="514" y="154.99" width="52.5" height="31.73" style="fill:none"/></clipPath><clipPath id="p" transform="translate(-108 -83)"><rect x="315.24" y="288.54" width="92" height="68" style="fill:none"/></clipPath><clipPath id="q" transform="translate(-108 -83)"><rect x="233.24" y="194.54" width="256" height="256" style="fill:none"/></clipPath><clipPath id="s" transform="translate(-108 -83)"><rect x="318.07" y="309.54" width="29.17" height="45" style="fill:none"/></clipPath><clipPath id="t" transform="translate(-108 -83)"><rect x="375.24" y="309.54" width="29.17" height="45" style="fill:none"/></clipPath><clipPath id="u" transform="translate(-108 -83)"><rect x="345.24" y="290.54" width="32" height="20.75" style="fill:none"/></clipPath><clipPath id="v" transform="translate(-108 -83)"><rect x="288.24" y="133.54" width="146" height="177.5" style="fill:none"/></clipPath><clipPath id="w" transform="translate(-108 -83)"><rect x="233.24" y="94.29" width="256" height="256" style="fill:none"/></clipPath><clipPath id="y" transform="translate(-108 -83)"><rect x="297.24" y="238.04" width="128" height="46.5" style="fill:none"/></clipPath><clipPath id="z" transform="translate(-108 -83)"><rect x="311.24" y="193.11" width="100" height="13.43" style="fill:none"/></clipPath><clipPath id="aa" transform="translate(-108 -83)"><rect x="770.79" y="288.54" width="92" height="68" style="fill:none"/></clipPath><clipPath id="ab" transform="translate(-108 -83)"><rect x="688.79" y="194.54" width="256" height="256" style="fill:none"/></clipPath><clipPath id="ad" transform="translate(-108 -83)"><rect x="773.62" y="309.54" width="29.17" height="45" style="fill:none"/></clipPath><clipPath id="ae" transform="translate(-108 -83)"><rect x="830.79" y="309.54" width="29.17" height="45" style="fill:none"/></clipPath><clipPath id="af" transform="translate(-108 -83)"><rect x="800.79" y="290.54" width="32" height="20.75" style="fill:none"/></clipPath><clipPath id="ag" transform="translate(-108 -83)"><rect x="745.29" y="124.54" width="143" height="185.75" style="fill:none"/></clipPath><clipPath id="ah" transform="translate(-108 -83)"><rect x="688.79" y="94.54" width="256" height="256" style="fill:none"/></clipPath><clipPath id="aj" transform="translate(-108 -83)"><rect x="747.29" y="126.54" width="139" height="82" style="fill:none"/></clipPath><clipPath id="ak" transform="translate(-108 -83)"><rect x="754.79" y="237.29" width="124" height="61.25" style="fill:none"/></clipPath><clipPath id="al" transform="translate(-108 -83)"><rect x="592.79" y="169.93" width="138" height="187.07" style="fill:none"/></clipPath><clipPath id="am" transform="translate(-108 -83)"><rect x="538.12" y="116" width="256" height="256" style="fill:none"/></clipPath><clipPath id="ao" transform="translate(-108 -83)"><rect x="600.79" y="234.93" width="122" height="53" style="fill:none"/></clipPath><clipPath id="ap" transform="translate(-108 -83)"><rect x="645.79" y="291" width="32" height="20.75" style="fill:none"/></clipPath><clipPath id="aq" transform="translate(-108 -83)"><rect x="617.79" y="310" width="88" height="39" style="fill:none"/></clipPath><clipPath id="ar" transform="translate(-108 -83)"><rect x="608.62" y="189.23" width="108.17" height="111.77" style="fill:none"/></clipPath><clipPath id="as" transform="translate(-108 -83)"><rect x="127.98" y="145.54" width="135.78" height="165.41" style="fill:none"/></clipPath><clipPath id="at" transform="translate(-108 -83)"><rect x="71.77" y="100.19" width="256" height="256" style="fill:none"/></clipPath><clipPath id="av" transform="translate(-108 -83)"><rect x="130.77" y="148.05" width="94" height="28.14" style="fill:none"/></clipPath><clipPath id="aw" transform="translate(-108 -83)"><rect x="130.15" y="184" width="126.62" height="55.2" style="fill:none"/></clipPath><clipPath id="ax" transform="translate(-108 -83)"><rect x="149.77" y="200.72" width="100" height="13.49" style="fill:none"/></clipPath></defs><title>meeples_groups-03</title><path d="M883.23,246.34H872.77A17.77,17.77,0,0,1,855,228.57V165.69a40,40,0,0,0-40-40l-209.26-.15a21.27,21.27,0,0,1-21.27-21.27h0A21.27,21.27,0,0,0,563.23,83H432.77A17.77,17.77,0,0,0,415,100.77h0a17.77,17.77,0,0,1-17.77,17.77H204.77A17.77,17.77,0,0,0,187,136.3v92.27a17.77,17.77,0,0,1-17.77,17.77H134.77A17.77,17.77,0,0,0,117,264.11V355H901V264.11A17.77,17.77,0,0,0,883.23,246.34Z" transform="translate(-108 -83)" style="fill:#59afe1;opacity:0.2"/><g style="clip-path:url(#a)"><g style="clip-path:url(#b)"><g style="clip-path:url(#b)"><path d="M560,354.54H472v-15a30,30,0,0,1,30-30h28a30,30,0,0,1,30,30v15Z" transform="translate(-108 -83)" style="fill:#3572b0"/><path d="M560,354.54H472v-15a30,30,0,0,1,30-30h28a30,30,0,0,1,30,30v15Z" transform="translate(-108 -83)" style="fill:none;stroke:#205081;stroke-linejoin:round;stroke-width:4px"/><g style="opacity:0.199996992945671"><g style="clip-path:url(#d)"><path d="M502,318.54v-9a30,30,0,0,0-29.17,23H485l-2,7,12,15h4.37Z" transform="translate(-108 -83)" style="fill:#205081"/></g></g><g style="opacity:0.199996992945671"><g style="clip-path:url(#e)"><path d="M530,318.54v-9a30,30,0,0,1,29.17,23H547l2,7-12,15h-4.37Z" transform="translate(-108 -83)" style="fill:#205081"/></g></g><path d="M507,301.54h0a25.42,25.42,0,0,0-25,20.62l-1,5.38h10l-2,7,11,20v-46l7,1v-8Z" transform="translate(-108 -83)" style="fill:#3572b0"/><path d="M507,301.54h0a25.42,25.42,0,0,0-25,20.62l-1,5.38h10l-2,7,11,20v-46l7,1v-8Z" transform="translate(-108 -83)" style="fill:none;stroke:#205081;stroke-linejoin:round;stroke-width:4px"/><path d="M525,301.54h0a25.42,25.42,0,0,1,25,20.62l1,5.38H541l2,7-11,20v-46l-7,1v-8Z" transform="translate(-108 -83)" style="fill:#3572b0"/><path d="M525,301.54h0a25.42,25.42,0,0,1,25,20.62l1,5.38H541l2,7-11,20v-46l-7,1v-8Z" transform="translate(-108 -83)" style="fill:none;stroke:#205081;stroke-linejoin:round;stroke-width:4px"/><rect x="392" y="226.54" width="32" height="44" style="fill:#f5f5f5"/><rect x="392" y="226.54" width="32" height="44" style="fill:none;stroke:#205081;stroke-linejoin:round;stroke-width:4px"/><polygon points="392 207.54 392 227.54 408 243.54 424 227.54 424 207.54 392 207.54" style="fill:#cc8352"/><polygon points="392 207.54 392 227.54 408 243.54 424 227.54 424 207.54 392 207.54" style="fill:none;stroke:#205081;stroke-linecap:round;stroke-linejoin:round;stroke-width:4px"/><g style="opacity:0.199996992945671"><g style="clip-path:url(#f)"><path d="M500,308.61a48.94,48.94,0,0,0,15.15,2.67A50,50,0,0,0,532,308.66V290.54H500v18.08Z" transform="translate(-108 -83)" style="fill:#205081"/></g></g><polygon points="417 269.54 399 269.54 402.5 252.54 413.5 252.54 417 269.54" style="fill:#ff4e4a"/><polygon points="417 269.54 399 269.54 402.5 252.54 413.5 252.54 417 269.54" style="fill:none;stroke:#205081;stroke-linejoin:round;stroke-width:4px"/><line x1="408" y1="243.54" x2="423.25" y2="258.79" style="fill:#cc8352"/><line x1="408" y1="243.54" x2="423.25" y2="258.79" style="fill:none;stroke:#205081;stroke-linecap:round;stroke-linejoin:round;stroke-width:4px"/><line x1="408" y1="243.54" x2="392.75" y2="258.79" style="fill:#cc8352"/><line x1="408" y1="243.54" x2="392.75" y2="258.79" style="fill:none;stroke:#205081;stroke-linecap:round;stroke-linejoin:round;stroke-width:4px"/><g style="opacity:0.199996992945671"><g style="clip-path:url(#g)"><path d="M513.17,346.54l-2.83-2.83a4,4,0,0,1,0-5.66l2.83-2.83a4,4,0,0,1,5.66,0l2.83,2.83a4,4,0,0,1,0,5.66l-2.83,2.83a4,4,0,0,1-5.66,0" transform="translate(-108 -83)" style="fill:#205081"/></g></g><path d="M514.59,342.12l-5.66-5.66a2,2,0,0,1,0-2.83l5.66-5.66a2,2,0,0,1,2.83,0l5.66,5.66a2,2,0,0,1,0,2.83l-5.66,5.66a2,2,0,0,1-2.83,0" transform="translate(-108 -83)" style="fill:#ff4e4a"/><rect x="510" y="329.05" width="12" height="12" rx="2" ry="2" transform="translate(-193.78 380) rotate(-45)" style="fill:none;stroke:#205081;stroke-linejoin:round;stroke-width:4px"/></g></g></g><g style="clip-path:url(#h)"><g style="clip-path:url(#i)"><g style="clip-path:url(#i)"><path d="M575.28,236.44H456.72l-1.74-4c-18.86-43.84,13.3-92.68,61-92.68s79.88,48.83,61,92.68Z" transform="translate(-108 -83)" style="fill:#ff4e4a"/><path d="M575.28,236.44H456.72l-1.74-4c-18.86-43.84,13.3-92.68,61-92.68s79.88,48.83,61,92.68Z" transform="translate(-108 -83)" style="fill:none;stroke:#205081;stroke-miterlimit:10;stroke-width:4px"/><path d="M466,212.35v45.3c0,27.42,21.73,50.36,49.14,50.81a50,50,0,0,0,50.86-50V208.72l-53-27-43.44,24.53a7,7,0,0,0-3.56,6.09" transform="translate(-108 -83)" style="fill:#cc8352"/><path d="M466,212.35v45.3c0,27.42,21.73,50.36,49.14,50.81a50,50,0,0,0,50.86-50V208.72l-53-27-43.44,24.53A7,7,0,0,0,466,212.35Z" transform="translate(-108 -83)" style="fill:none;stroke:#205081;stroke-linecap:round;stroke-linejoin:round;stroke-width:4px"/><g style="opacity:0.100005999207497"><g style="clip-path:url(#k)"><path d="M515.15,308.46c28,0.47,50.85-28,50.85-55.92V229a9,9,0,0,0-9,9v25.75a13,13,0,0,1-14.17,12.95c-6.92-.64-16.09-4.21-26.83-4.21s-19.91,3.57-26.83,4.21A13,13,0,0,1,475,263.72V238a9,9,0,0,0-9-9v22.75c0,27.42,21.73,56.29,49.15,56.74" transform="translate(-108 -83)" style="fill:#205081"/></g></g><path d="M485,197.53a110.06,110.06,0,0,0,31,4.19,112,112,0,0,0,29.11-3.64L513,181.72Z" transform="translate(-108 -83)" style="fill:#3572b0"/><path d="M485,197.53a110.06,110.06,0,0,0,31,4.19,112,112,0,0,0,29.11-3.64L513,181.72Z" transform="translate(-108 -83)" style="fill:none;stroke:#205081;stroke-linejoin:round;stroke-width:4px"/><path d="M485,197.53a110.06,110.06,0,0,0,31,4.19,112,112,0,0,0,29.11-3.64L513,181.72Z" transform="translate(-108 -83)" style="fill:#3572b0"/><path d="M485,197.53a110.06,110.06,0,0,0,31,4.19,112,112,0,0,0,29.11-3.64L513,181.72Z" transform="translate(-108 -83)" style="fill:none;stroke:#205081;stroke-linejoin:round;stroke-width:4px"/><g style="opacity:0.399993985891342"><g style="clip-path:url(#l)"><path d="M498.6,189.85a120.69,120.69,0,0,0,17.4,1.24,122.75,122.75,0,0,0,13.86-.79L513,181.72Z" transform="translate(-108 -83)" style="fill:#205081"/></g></g><path d="M466,226a12,12,0,0,0,0,24V226Z" transform="translate(-108 -83)" style="fill:#cc8352"/><path d="M466,226a12,12,0,0,0,0,24V226Z" transform="translate(-108 -83)" style="fill:none;stroke:#205081;stroke-linecap:round;stroke-linejoin:round;stroke-width:4px"/><path d="M566,226a12,12,0,0,1,0,24V226Z" transform="translate(-108 -83)" style="fill:#cc8352"/><path d="M566,226a12,12,0,0,1,0,24V226Z" transform="translate(-108 -83)" style="fill:none;stroke:#205081;stroke-linecap:round;stroke-linejoin:round;stroke-width:4px"/><path d="M499,237.72a5,5,0,1,1-5-5,5,5,0,0,1,5,5" transform="translate(-108 -83)" style="fill:#205081"/><path d="M543,237.72a5,5,0,1,1-5-5,5,5,0,0,1,5,5" transform="translate(-108 -83)" style="fill:#205081"/><path d="M486.07,226.72c0.57-3.52,4.26-6,8-6s7.27,2.57,7.85,6" transform="translate(-108 -83)" style="fill:none;stroke:#205081;stroke-linecap:round;stroke-linejoin:round;stroke-width:4px"/><path d="M530.07,226.72c0.57-3.52,4.26-6,8-6s7.27,2.57,7.85,6" transform="translate(-108 -83)" style="fill:none;stroke:#205081;stroke-linecap:round;stroke-linejoin:round;stroke-width:4px"/><path d="M524,256.47a8,8,0,0,1-16,0V244.72" transform="translate(-108 -83)" style="fill:none;stroke:#205081;stroke-linecap:round;stroke-linejoin:round;stroke-width:4px"/><path d="M516,292a12,12,0,0,0,11.77-9.66,2,2,0,0,0-2-2.34H506.2a2,2,0,0,0-2,2.34A12,12,0,0,0,516,292" transform="translate(-108 -83)" style="fill:#205081"/><line x1="386" y1="109.29" x2="450" y2="72.72" style="fill:none;stroke:#205081;stroke-linejoin:round;stroke-width:4px"/><line x1="342" y1="110.72" x2="429" y2="60.72" style="fill:none;stroke:#205081;stroke-linejoin:round;stroke-width:4px"/><g style="opacity:0.100005999207497"><g style="clip-path:url(#m)"><path d="M516,139.72h0a66.42,66.42,0,0,0-65.15,53.23l86.87-49.64A66.68,66.68,0,0,0,516,139.72" transform="translate(-108 -83)" style="fill:#205081"/></g></g><line x1="458" y1="125.72" x2="474" y2="133.72" style="fill:none;stroke:#205081;stroke-miterlimit:10;stroke-width:4px"/><g style="opacity:0.100005999207497"><g style="clip-path:url(#n)"><path d="M513,181.72l68.66,34.79a65.28,65.28,0,0,0-.2-22L535,169.72Z" transform="translate(-108 -83)" style="fill:#205081"/></g></g><g style="opacity:0.199996992945671"><g style="clip-path:url(#o)"><path d="M558.43,155L514,180.72l9,6L566.5,163a66.91,66.91,0,0,0-8.07-8" transform="translate(-108 -83)" style="fill:#205081"/></g></g></g></g></g><g style="clip-path:url(#p)"><g style="clip-path:url(#q)"><g style="clip-path:url(#q)"><path d="M405.24,354.54h-88v-15a30,30,0,0,1,30-30h28a30,30,0,0,1,30,30v15Z" transform="translate(-108 -83)" style="fill:#59afe1"/><path d="M405.24,354.54h-88v-15a30,30,0,0,1,30-30h28a30,30,0,0,1,30,30v15Z" transform="translate(-108 -83)" style="fill:none;stroke:#205081;stroke-linejoin:round;stroke-width:4px"/><g style="opacity:0.199996992945671"><g style="clip-path:url(#s)"><path d="M347.24,318.54v-9a30,30,0,0,0-29.17,23h12.17l-2,7,12,15h4.37Z" transform="translate(-108 -83)" style="fill:#205081"/></g></g><g style="opacity:0.199996992945671"><g style="clip-path:url(#t)"><path d="M375.24,318.54v-9a30,30,0,0,1,29.17,23H392.24l2,7-12,15h-4.37Z" transform="translate(-108 -83)" style="fill:#205081"/></g></g><path d="M352.24,301.54h0a25.42,25.42,0,0,0-25,20.62l-1,5.38h10l-2,7,11,20v-46l7,1v-8Z" transform="translate(-108 -83)" style="fill:#59afe1"/><path d="M352.24,301.54h0a25.42,25.42,0,0,0-25,20.62l-1,5.38h10l-2,7,11,20v-46l7,1v-8Z" transform="translate(-108 -83)" style="fill:none;stroke:#205081;stroke-linejoin:round;stroke-width:4px"/><path d="M370.24,301.54h0a25.42,25.42,0,0,1,25,20.62l1,5.38h-10l2,7-11,20v-46l-7,1v-8Z" transform="translate(-108 -83)" style="fill:#59afe1"/><path d="M370.24,301.54h0a25.42,25.42,0,0,1,25,20.62l1,5.38h-10l2,7-11,20v-46l-7,1v-8Z" transform="translate(-108 -83)" style="fill:none;stroke:#205081;stroke-linejoin:round;stroke-width:4px"/><rect x="237.24" y="226.54" width="32" height="44" style="fill:#f5f5f5"/><rect x="237.24" y="226.54" width="32" height="44" style="fill:none;stroke:#205081;stroke-linejoin:round;stroke-width:4px"/><path d="M345.24,290.54v35s2,16,16,16,16-16,16-16v-35h-32Z" transform="translate(-108 -83)" style="fill:#ffe1a4"/><path d="M345.24,290.54v35s2,16,16,16,16-16,16-16v-35h-32Z" transform="translate(-108 -83)" style="fill:none;stroke:#205081;stroke-linejoin:round;stroke-width:4px"/><g style="opacity:0.100005999207497"><g style="clip-path:url(#u)"><path d="M345.24,308.61a48.94,48.94,0,0,0,15.15,2.67,50,50,0,0,0,16.85-2.62V290.54h-32v18.08Z" transform="translate(-108 -83)" style="fill:#205081"/></g></g></g></g></g><g style="clip-path:url(#v)"><g style="clip-path:url(#w)"><g style="clip-path:url(#w)"><path d="M361.24,135.54h0a71,71,0,0,0-71,71v78a15.8,15.8,0,0,0,11.17-4.63l2.34-2.34,2.34,2.34a15.8,15.8,0,0,0,11.17,4.63h87.94a15.8,15.8,0,0,0,11.17-4.63l2.34-2.34,2.34,2.34a15.8,15.8,0,0,0,11.17,4.63v-78a71,71,0,0,0-71-71" transform="translate(-108 -83)" style="fill:#e9e9e9"/><path d="M361.24,135.54h0a71,71,0,0,0-71,71v78a15.8,15.8,0,0,0,11.17-4.63l2.34-2.34,2.34,2.34a15.8,15.8,0,0,0,11.17,4.63h87.94a15.8,15.8,0,0,0,11.17-4.63l2.34-2.34,2.34,2.34a15.8,15.8,0,0,0,11.17,4.63v-78A71,71,0,0,0,361.24,135.54Z" transform="translate(-108 -83)" style="fill:none;stroke:#205081;stroke-linejoin:round;stroke-width:4px"/><path d="M361.24,135.54h0a71,71,0,0,0-71,71v6a71,71,0,0,1,142,0v-6a71,71,0,0,0-71-71" transform="translate(-108 -83)" style="fill:#fff"/><path d="M361.24,135.54h0a71,71,0,0,0-71,71v78a15.8,15.8,0,0,0,11.17-4.63l2.34-2.34,2.34,2.34a15.8,15.8,0,0,0,11.17,4.63h87.94a15.8,15.8,0,0,0,11.17-4.63l2.34-2.34,2.34,2.34a15.8,15.8,0,0,0,11.17,4.63v-78A71,71,0,0,0,361.24,135.54Z" transform="translate(-108 -83)" style="fill:none;stroke:#205081;stroke-linejoin:round;stroke-width:4px"/><g style="opacity:0.199996992945671"><g style="clip-path:url(#y)"><path d="M297.24,282.88a15.77,15.77,0,0,0,4.17-3l2.34-2.34,2.34,2.34a15.8,15.8,0,0,0,11.17,4.63h87.94a15.8,15.8,0,0,0,11.17-4.63l2.34-2.34,2.34,2.34a15.77,15.77,0,0,0,4.17,3V238h-128v44.85Z" transform="translate(-108 -83)" style="fill:#205081"/></g></g><path d="M311.24,226a12,12,0,0,0,0,24V226Z" transform="translate(-108 -83)" style="fill:#ffe1a4"/><path d="M311.24,226a12,12,0,0,0,0,24V226Z" transform="translate(-108 -83)" style="fill:none;stroke:#205081;stroke-linejoin:round;stroke-width:4px"/><path d="M411.24,226a12,12,0,0,1,0,24V226Z" transform="translate(-108 -83)" style="fill:#ffe1a4"/><path d="M411.24,226a12,12,0,0,1,0,24V226Z" transform="translate(-108 -83)" style="fill:none;stroke:#205081;stroke-linejoin:round;stroke-width:4px"/><path d="M377.45,196.61l-3.5-3.5-3.5,3.5a10,10,0,0,1-7.07,2.93H313.24a2,2,0,0,0-2,2v56.68c0,27.42,21.73,50.36,49.15,50.82a50,50,0,0,0,50.85-50v-57.5a2,2,0,0,0-2-2H384.52a10,10,0,0,1-7.07-2.93" transform="translate(-108 -83)" style="fill:#ffe1a4"/><path d="M377.45,196.61l-3.5-3.5-3.5,3.5a10,10,0,0,1-7.07,2.93H313.24a2,2,0,0,0-2,2v56.68c0,27.42,21.73,50.36,49.15,50.82a50,50,0,0,0,50.85-50v-57.5a2,2,0,0,0-2-2H384.52A10,10,0,0,1,377.45,196.61Z" transform="translate(-108 -83)" style="fill:none;stroke:#205081;stroke-linejoin:round;stroke-width:4px"/><path d="M344.24,235a5,5,0,1,1-5-5,5,5,0,0,1,5,5" transform="translate(-108 -83)" style="fill:#205081"/><path d="M388.24,235a5,5,0,1,1-5-5,5,5,0,0,1,5,5" transform="translate(-108 -83)" style="fill:#205081"/><path d="M331.31,224c0.57-3.52,4.26-6,8-6s7.27,2.57,7.85,6" transform="translate(-108 -83)" style="fill:none;stroke:#205081;stroke-linecap:round;stroke-linejoin:round;stroke-width:4px"/><path d="M375.31,224c0.57-3.52,4.26-6,8-6s7.27,2.57,7.85,6" transform="translate(-108 -83)" style="fill:none;stroke:#205081;stroke-linecap:round;stroke-linejoin:round;stroke-width:4px"/><path d="M361.24,287.54A12,12,0,0,0,373,277.87a2,2,0,0,0-2-2.34h-19.6a2,2,0,0,0-2,2.34,12,12,0,0,0,11.77,9.66" transform="translate(-108 -83)" style="fill:#205081"/><line x1="245.74" y1="175.29" x2="260.74" y2="175.29" style="fill:none;stroke:#205081;stroke-linecap:round;stroke-linejoin:round;stroke-width:4px"/><g style="opacity:0.100005999207497"><g style="clip-path:url(#z)"><path d="M409.24,199.54H384.52a10,10,0,0,1-7.07-2.93l-3.5-3.5-3.5,3.5a10,10,0,0,1-7.07,2.93H313.24a2,2,0,0,0-2,2v5h100v-5a2,2,0,0,0-2-2" transform="translate(-108 -83)" style="fill:#205081"/></g></g></g></g></g><line y1="272" x2="816" y2="272" style="fill:none;stroke:#205081;stroke-miterlimit:10;stroke-width:4px"/><g style="clip-path:url(#aa)"><g style="clip-path:url(#ab)"><g style="clip-path:url(#ab)"><path d="M860.79,354.54h-88v-15a30,30,0,0,1,30-30h28a30,30,0,0,1,30,30v15Z" transform="translate(-108 -83)" style="fill:#c1cad4"/><path d="M860.79,354.54h-88v-15a30,30,0,0,1,30-30h28a30,30,0,0,1,30,30v15Z" transform="translate(-108 -83)" style="fill:none;stroke:#205081;stroke-linejoin:round;stroke-width:4px"/><g style="opacity:0.199996992945671"><g style="clip-path:url(#ad)"><path d="M802.79,318.54v-9a30,30,0,0,0-29.17,23h12.17l-2,7,12,15h4.37Z" transform="translate(-108 -83)" style="fill:#205081"/></g></g><g style="opacity:0.199996992945671"><g style="clip-path:url(#ae)"><path d="M830.79,318.54v-9a30,30,0,0,1,29.17,23H847.79l2,7-12,15h-4.37Z" transform="translate(-108 -83)" style="fill:#205081"/></g></g><path d="M807.79,301.54h0a25.42,25.42,0,0,0-25,20.62l-1,5.38h10l-2,7,11,20v-46l7,1v-8Z" transform="translate(-108 -83)" style="fill:#c1cad4"/><path d="M807.79,301.54h0a25.42,25.42,0,0,0-25,20.62l-1,5.38h10l-2,7,11,20v-46l7,1v-8Z" transform="translate(-108 -83)" style="fill:none;stroke:#205081;stroke-linejoin:round;stroke-width:4px"/><path d="M825.79,301.54h0a25.42,25.42,0,0,1,25,20.62l1,5.38h-10l2,7-11,20v-46l-7,1v-8Z" transform="translate(-108 -83)" style="fill:#c1cad4"/><path d="M825.79,301.54h0a25.42,25.42,0,0,1,25,20.62l1,5.38h-10l2,7-11,20v-46l-7,1v-8Z" transform="translate(-108 -83)" style="fill:none;stroke:#205081;stroke-linejoin:round;stroke-width:4px"/><rect x="692.79" y="226.54" width="32" height="44" style="fill:#f5f5f5"/><rect x="692.79" y="226.54" width="32" height="44" style="fill:none;stroke:#205081;stroke-linejoin:round;stroke-width:4px"/><path d="M800.79,290.54v35s2,16,16,16,16-16,16-16v-35h-32Z" transform="translate(-108 -83)" style="fill:#cc8352"/><path d="M800.79,290.54v35s2,16,16,16,16-16,16-16v-35h-32Z" transform="translate(-108 -83)" style="fill:none;stroke:#205081;stroke-linecap:round;stroke-linejoin:round;stroke-width:4px"/><g style="opacity:0.199996992945671"><g style="clip-path:url(#af)"><path d="M800.79,308.61a48.94,48.94,0,0,0,15.15,2.67,50,50,0,0,0,16.85-2.62V290.54h-32v18.08Z" transform="translate(-108 -83)" style="fill:#205081"/></g></g></g></g></g><g style="clip-path:url(#ag)"><g style="clip-path:url(#ah)"><g style="clip-path:url(#ah)"><path d="M886.29,191.54c0-27.61-10.5-65-50.5-65-30,0-44.5,16-44.5,16-33.5-9.17-44,31.39-44,59v96h139v-106Z" transform="translate(-108 -83)" style="fill:#3572b0"/><path d="M886.29,191.54c0-27.61-10.5-65-50.5-65-30,0-44.5,16-44.5,16-33.5-9.17-44,31.39-44,59v96h139v-106Z" transform="translate(-108 -83)" style="fill:none;stroke:#205081;stroke-linejoin:round;stroke-width:4px"/><g style="opacity:0.600005984306336"><g style="clip-path:url(#aj)"><path d="M835.79,126.54c-30,0-44.5,16-44.5,16-33.5-9.17-44,31.39-44,59v7c0-27.61,10.5-68.17,44-59,0,0,14.5-16,44.5-16,40,0,50.5,37.39,50.5,65v-7c0-27.61-10.5-65-50.5-65" transform="translate(-108 -83)" style="fill:#59afe1"/></g></g><path d="M886.29,191.54c0-27.61-10.5-65-50.5-65-30,0-44.5,16-44.5,16-33.5-9.17-44,31.39-44,59v96h139v-106Z" transform="translate(-108 -83)" style="fill:none;stroke:#205081;stroke-linejoin:round;stroke-width:4px"/><g style="opacity:0.399993985891342"><g style="clip-path:url(#ak)"><rect x="646.79" y="154.29" width="124" height="61.25" style="fill:#205081"/></g></g><path d="M766.79,225.29a12,12,0,0,0,0,24v-24Z" transform="translate(-108 -83)" style="fill:#dca378"/><path d="M766.79,225.29a12,12,0,0,0,0,24v-24Z" transform="translate(-108 -83)" style="fill:none;stroke:#205081;stroke-linecap:round;stroke-linejoin:round;stroke-width:4px"/><path d="M830.32,194.37l-2.54-2.84-2.54,2.84a20,20,0,0,1-14.9,6.66H766.79v56.43c0,27.42,21.73,50.36,49.14,50.82a50,50,0,0,0,50.86-50V201H845.23a20,20,0,0,1-14.9-6.66" transform="translate(-108 -83)" style="fill:#dca378"/><path d="M830.32,194.37l-2.54-2.84-2.54,2.84a20,20,0,0,1-14.9,6.66H766.79v56.43c0,27.42,21.73,50.36,49.14,50.82a50,50,0,0,0,50.86-50V201H845.23A20,20,0,0,1,830.32,194.37Z" transform="translate(-108 -83)" style="fill:none;stroke:#205081;stroke-linecap:round;stroke-linejoin:round;stroke-width:4px"/><path d="M799.79,235.54a5,5,0,1,1-5-5,5,5,0,0,1,5,5" transform="translate(-108 -83)" style="fill:#205081"/><path d="M843.79,235.54a5,5,0,1,1-5-5,5,5,0,0,1,5,5" transform="translate(-108 -83)" style="fill:#205081"/><path d="M786.86,224.54c0.57-3.52,4.26-6,8-6s7.27,2.57,7.85,6" transform="translate(-108 -83)" style="fill:none;stroke:#205081;stroke-linecap:round;stroke-linejoin:round;stroke-width:4px"/><path d="M830.86,224.54c0.57-3.52,4.26-6,8-6s7.27,2.57,7.85,6" transform="translate(-108 -83)" style="fill:none;stroke:#205081;stroke-linecap:round;stroke-linejoin:round;stroke-width:4px"/><path d="M824.79,259a8,8,0,1,1-16,0v-11.5" transform="translate(-108 -83)" style="fill:none;stroke:#205081;stroke-linecap:round;stroke-linejoin:round;stroke-width:4px"/><path d="M816.79,291.54a12,12,0,0,0,11.77-9.66,2,2,0,0,0-2-2.34H807a2,2,0,0,0-2,2.34,12,12,0,0,0,11.77,9.66" transform="translate(-108 -83)" style="fill:#205081"/><path d="M866.79,225.29a12,12,0,0,1,0,24v-24Z" transform="translate(-108 -83)" style="fill:#dca378"/><path d="M866.79,225.29a12,12,0,0,1,0,24v-24Z" transform="translate(-108 -83)" style="fill:none;stroke:#205081;stroke-linecap:round;stroke-linejoin:round;stroke-width:4px"/></g></g></g><g style="clip-path:url(#al)"><g style="clip-path:url(#am)"><g style="clip-path:url(#am)"><path d="M720.79,287.93h-118a8,8,0,0,1-8-8v-37a8,8,0,0,1,8-8h118a8,8,0,0,1,8,8v37a8,8,0,0,1-8,8" transform="translate(-108 -83)" style="fill:#ffbd17"/><rect x="486.79" y="151.93" width="134" height="53" rx="8" ry="8" style="fill:none;stroke:#205081;stroke-linejoin:round;stroke-width:4px"/><g style="opacity:0.149994000792503"><g style="clip-path:url(#ao)"><rect x="492.79" y="151.93" width="122" height="53" style="fill:#205081"/></g></g><path d="M645.79,291v22a16,16,0,0,0,32,0V291h-32Z" transform="translate(-108 -83)" style="fill:#ffbd17"/><path d="M645.79,291v22a16,16,0,0,0,32,0V291h-32Z" transform="translate(-108 -83)" style="fill:none;stroke:#205081;stroke-linejoin:round;stroke-width:4px"/><g style="opacity:0.100005999207497"><g style="clip-path:url(#ap)"><path d="M645.79,309.08a49,49,0,0,0,15.15,2.67,50,50,0,0,0,16.85-2.62V291h-32v18.08Z" transform="translate(-108 -83)" style="fill:#205081"/></g></g><path d="M705.79,355h-88V340a30,30,0,0,1,30-30h28a30,30,0,0,1,30,30v15Z" transform="translate(-108 -83)" style="fill:#ffbd17"/><path d="M705.79,355h-88V340a30,30,0,0,1,30-30h28a30,30,0,0,1,30,30v15Z" transform="translate(-108 -83)" style="fill:none;stroke:#205081;stroke-linejoin:round;stroke-width:4px"/><g style="opacity:0.149994000792503"><g style="clip-path:url(#aq)"><path d="M675.79,310h-28a30,30,0,0,0-30,30v9a30,30,0,0,1,30-30h28a30,30,0,0,1,30,30v-9a30,30,0,0,0-30-30" transform="translate(-108 -83)" style="fill:#205081"/></g></g><line x1="546.79" y1="261" x2="584.79" y2="261" style="fill:#ffbd17"/><line x1="546.79" y1="261" x2="584.79" y2="261" style="fill:none;stroke:#205081;stroke-linejoin:round;stroke-width:4px"/><path d="M633.79,344a3,3,0,1,1-3-3,3,3,0,0,1,3,3" transform="translate(-108 -83)" style="fill:#59afe1"/><path d="M643.79,344a3,3,0,1,1-3-3,3,3,0,0,1,3,3" transform="translate(-108 -83)" style="fill:#ff4e4a"/><path d="M716.79,293.67V227.75c0-30.23-24-55.42-54.27-55.82a55,55,0,0,0-55.73,55v66.73a7.33,7.33,0,0,0,7.33,7.33h95.33a7.33,7.33,0,0,0,7.33-7.33" transform="translate(-108 -83)" style="fill:#ffbd17"/><path d="M716.79,293.67V227.75c0-30.23-24-55.42-54.27-55.82a55,55,0,0,0-55.73,55v66.73a7.33,7.33,0,0,0,7.33,7.33h95.33A7.33,7.33,0,0,0,716.79,293.67Z" transform="translate(-108 -83)" style="fill:none;stroke:#205081;stroke-linejoin:round;stroke-width:4px"/><path d="M661.79,208.42A14.21,14.21,0,0,0,676,194.21V173.8a55.11,55.11,0,0,0-28.42,0v20.41a14.21,14.21,0,0,0,14.21,14.21" transform="translate(-108 -83)" style="fill:#e89920"/><g style="opacity:0.600005984306336"><g style="clip-path:url(#ar)"><path d="M700.58,189.23a56.15,56.15,0,0,1,10.71,33v65.91A7.33,7.33,0,0,1,704,295.5H608.62v0.92a4.23,4.23,0,0,0,5.5,4.58h95.33a7.33,7.33,0,0,0,7.33-7.33V227.75a56.11,56.11,0,0,0-8.58-29.84,56.19,56.19,0,0,0-7.63-8.69" transform="translate(-108 -83)" style="fill:#ffe1a4"/></g></g><path d="M716.79,293.67V227.75c0-30.23-24-55.42-54.27-55.82a55,55,0,0,0-55.73,55v66.73a7.33,7.33,0,0,0,7.33,7.33h95.33A7.33,7.33,0,0,0,716.79,293.67Z" transform="translate(-108 -83)" style="fill:none;stroke:#205081;stroke-linejoin:round;stroke-width:4px"/><path d="M661.79,287a12,12,0,0,0,11.77-9.66,2,2,0,0,0-2-2.34H652a2,2,0,0,0-2,2.34A12,12,0,0,0,661.79,287" transform="translate(-108 -83)" style="fill:#205081"/><path d="M649.79,236a15,15,0,1,1-15-15,15,15,0,0,1,15,15" transform="translate(-108 -83)" style="fill:#fff"/><path d="M639.79,236a5,5,0,1,1-5-5,5,5,0,0,1,5,5" transform="translate(-108 -83)" style="fill:#2a5083"/><path d="M703.79,236a15,15,0,1,1-15-15,15,15,0,0,1,15,15" transform="translate(-108 -83)" style="fill:#fff"/><path d="M693.79,236a5,5,0,1,1-5-5,5,5,0,0,1,5,5" transform="translate(-108 -83)" style="fill:#2a5083"/><path d="M652.73,255.53l5.91-7.52a4,4,0,0,1,6.29,0l5.91,7.52A4,4,0,0,1,667.7,262H655.87a4,4,0,0,1-3.14-6.47" transform="translate(-108 -83)" style="fill:#e89920"/></g></g></g><path d="M77.88,228.54h28a30,30,0,0,1,30,30v15a0,0,0,0,1,0,0h-88a0,0,0,0,1,0,0v-15A30,30,0,0,1,77.88,228.54Z" style="fill:#ff4e4a;stroke:#205081;stroke-linejoin:round;stroke-width:4px"/><path d="M231.34,320.77A12,12,0,0,0,220.88,313l-21-1.11-21,1.11a12,12,0,0,0-10.46,7.79l-6.29,16.93h9.65c1.63,0,28.11,14.83,28.11,14.83S225.35,337.7,227,337.7h10.65Z" transform="translate(-108 -83)" style="fill:#205081;opacity:0.2"/><path d="M227.23,314.77A12,12,0,0,0,216.77,307l-16.89-1.11L183,307a12,12,0,0,0-10.46,7.79l-6.29,16.93h12.53c1.63,0,2.74,4.23,4.87,5.72s16.25,9.11,16.25,9.11,14.25-7.35,16.25-9.11,3.24-5.72,4.87-5.72h12.53Z" transform="translate(-108 -83)" style="fill:#ff4e4a;stroke:#205081;stroke-linejoin:round;stroke-width:4px"/><path d="M183.88,292.54v24c0,8.84,16,30,16,30s16-21.16,16-30v-24h-32Z" transform="translate(-108 -83)" style="fill:#dca378;stroke:#205081;stroke-linejoin:round;stroke-width:4px"/><path d="M183.88,310.61A48.92,48.92,0,0,0,199,313.28a50,50,0,0,0,16.85-2.62V292.54h-32v18.08Z" transform="translate(-108 -83)" style="fill:#205081;opacity:0.1"/><g style="clip-path:url(#as)"><g style="clip-path:url(#at)"><g style="clip-path:url(#at)"><path d="M228.75,174.45l-4,1.74c0-37-88-38-94-4-4.52,25.6,12,30.86,12,30.86v36.14h114V192.77a20,20,0,0,0-28-18.32" transform="translate(-108 -83)" style="fill:#3572b0"/><path d="M228.75,174.45l-4,1.74c0-37-88-38-94-4-4.52,25.6,12,30.86,12,30.86v36.14h114V192.77A20,20,0,0,0,228.75,174.45Z" transform="translate(-108 -83)" style="fill:none;stroke:#205081;stroke-linejoin:round;stroke-width:4px"/><path d="M228.75,174.45l-4,1.74c0-37-88-38-94-4-4.52,25.6,12,30.86,12,30.86v36.14h114V192.77a20,20,0,0,0-28-18.32" transform="translate(-108 -83)" style="fill:#3572b0"/><path d="M228.75,174.45l-4,1.74c0-37-88-38-94-4-4.52,25.6,12,30.86,12,30.86v36.14h114V192.77A20,20,0,0,0,228.75,174.45Z" transform="translate(-108 -83)" style="fill:none;stroke:#205081;stroke-linejoin:round;stroke-width:4px"/><g style="opacity:0.600005984306336"><g style="clip-path:url(#av)"><path d="M224.77,176.19c-17.33-29.67-69.67-32.67-94-4,0-29.17,94-36.5,94,4" transform="translate(-108 -83)" style="fill:#59afe1"/></g></g><path d="M228.75,174.45l-4,1.74c0-37-88-38-94-4-4.52,25.6,12,30.86,12,30.86v36.14h114V192.77A20,20,0,0,0,228.75,174.45Z" transform="translate(-108 -83)" style="fill:none;stroke:#205081;stroke-linejoin:round;stroke-width:4px"/><g style="opacity:0.399993985891342"><g style="clip-path:url(#aw)"><path d="M130.15,184c1.46,15.5,12.62,19.06,12.62,19.06v36.14h114V192.77a20.61,20.61,0,0,0-.18-2.7c-17.16,3.74-37.88,7.12-56.82,7.12-29.5,0-56.1-8.19-69.62-13.2" transform="translate(-108 -83)" style="fill:#205081"/></g></g><path d="M149.77,208.74v49.38c0,27.42,21.73,50.36,49.14,50.82a50,50,0,0,0,50.86-50V208.74a8,8,0,0,0-10.63-7.55c-8.42,3-21.71,6.26-39.37,6.26s-31-3.28-39.37-6.26a8,8,0,0,0-10.63,7.55" transform="translate(-108 -83)" style="fill:#dca378"/><path d="M149.77,208.74v49.38c0,27.42,21.73,50.36,49.14,50.82a50,50,0,0,0,50.86-50V208.74a8,8,0,0,0-10.63-7.55c-8.42,3-21.71,6.26-39.37,6.26s-31-3.28-39.37-6.26A8,8,0,0,0,149.77,208.74Z" transform="translate(-108 -83)" style="fill:none;stroke:#205081;stroke-linecap:round;stroke-linejoin:round;stroke-width:4px"/><g style="opacity:0.199996992945671"><g style="clip-path:url(#ax)"><path d="M239.14,201.18c-8.42,3-21.71,6.26-39.37,6.26s-31-3.28-39.37-6.26a8,8,0,0,0-10.63,7.56v5.47a8,8,0,0,1,10.63-7.55c8.42,3,21.71,6.26,39.37,6.26s31-3.28,39.37-6.26a8,8,0,0,1,10.63,7.55v-5.47a8,8,0,0,0-10.63-7.56" transform="translate(-108 -83)" style="fill:#205081"/></g></g><path d="M149.77,226.44a12,12,0,0,0,0,24v-24Z" transform="translate(-108 -83)" style="fill:#dca378"/><path d="M149.77,226.44a12,12,0,0,0,0,24v-24Z" transform="translate(-108 -83)" style="fill:none;stroke:#205081;stroke-linecap:round;stroke-linejoin:round;stroke-width:4px"/><path d="M249.77,226.44a12,12,0,0,1,0,24v-24Z" transform="translate(-108 -83)" style="fill:#dca378"/><path d="M249.77,226.44a12,12,0,0,1,0,24v-24Z" transform="translate(-108 -83)" style="fill:none;stroke:#205081;stroke-linecap:round;stroke-linejoin:round;stroke-width:4px"/><path d="M207.77,256.69a8,8,0,0,1-16,0" transform="translate(-108 -83)" style="fill:none;stroke:#205081;stroke-linecap:round;stroke-linejoin:round;stroke-width:4px"/><path d="M199.77,292.19a12,12,0,0,0,11.77-9.66,2,2,0,0,0-2-2.34H190a2,2,0,0,0-2,2.34,12,12,0,0,0,11.77,9.66" transform="translate(-108 -83)" style="fill:#205081"/><path d="M184,227.07l-10.59,3a3.5,3.5,0,0,1-1.89-6.74l10.59-3a3.5,3.5,0,0,1,1.89,6.74" transform="translate(-108 -83)" style="fill:#3572b0"/><path d="M184,227.07l-10.59,3a3.5,3.5,0,0,1-1.89-6.74l10.59-3A3.5,3.5,0,0,1,184,227.07Z" transform="translate(-108 -83)" style="fill:none;stroke:#205081;stroke-linejoin:round;stroke-width:4px"/><path d="M215.53,227.07l10.59,3a3.5,3.5,0,0,0,1.88-6.74l-10.59-3a3.5,3.5,0,0,0-1.88,6.74" transform="translate(-108 -83)" style="fill:#3572b0"/><path d="M215.53,227.07l10.59,3a3.5,3.5,0,0,0,1.88-6.74l-10.59-3A3.5,3.5,0,0,0,215.53,227.07Z" transform="translate(-108 -83)" style="fill:none;stroke:#205081;stroke-linejoin:round;stroke-width:4px"/><path d="M182.77,240.19a5,5,0,1,1-5-5,5,5,0,0,1,5,5" transform="translate(-108 -83)" style="fill:#205081"/><path d="M226.77,240.19a5,5,0,1,1-5-5,5,5,0,0,1,5,5" transform="translate(-108 -83)" style="fill:#205081"/></g></g></g></svg>